Coordinates
version=1
nRows=19
nColumns=24
inDegrees=yes

Units are S.I. units (second, meters, Newtons, ...)
Angles are in degrees.

endheader
time	pelvis_tilt	pelvis_list	pelvis_rotation	pelvis_tx	pelvis_ty	pelvis_tz	hip_flexion_r	hip_adduction_r	hip_rotation_r	knee_angle_r	ankle_angle_r	subtalar_angle_r	mtp_angle_r	hip_flexion_l	hip_adduction_l	hip_rotation_l	knee_angle_l	ankle_angle_l	subtalar_angle_l	mtp_angle_l	lumbar_extension	lumbar_bending	lumbar_rotation
      3.09000000	     -9.95886189	     -5.77300907	      4.43666882	     -1.69926159	     -0.03476105	      0.68902231	     29.60198749	      3.25034222	      0.49308107	    -33.38115188	      4.79249746	     -0.63752118	     18.66995720	     16.71802901	     -4.74102741	      3.01655832	    -62.20592262	    -19.32070240	      0.21631351	     24.59687904	      7.94671333	     13.49501574	     -8.62593241
      3.09500000	     -9.89682247	     -5.75915934	      4.29618303	     -1.69242634	     -0.03349883	      0.68957628	     28.86410197	      3.38806033	      0.63114407	    -32.99924593	      5.22425062	     -0.44096307	     17.76694163	     17.67801964	     -4.68202810	      2.84164949	    -63.18852147	    -19.15676904	      0.76749219	     27.17651368	      7.80960778	     13.53088162	     -8.29449276
      3.10000000	     -9.85113561	     -5.76286521	      4.14333325	     -1.68558698	     -0.03221795	      0.69014587	     28.11196460	      3.54115896	      0.73832742	    -32.51474659	      5.45567405	     -0.50410369	     17.51093632	     18.66161268	     -4.66112146	      2.62820494	    -64.13636489	    -18.86396465	      1.32226382	     28.81122443	      7.69099579	     13.58382909	     -7.89695923
      3.10500000	     -9.79664370	     -5.73517070	      3.99480005	     -1.67874390	     -0.03089890	      0.69071050	     27.32590031	      3.66644700	      0.92858805	    -32.00065256	      5.71446440	     -0.49733557	     17.20770676	     19.60982994	     -4.60972607	      2.41526660	    -64.96920076	    -18.67938815	      1.73853126	     30.32385401	      7.57096370	     13.59355450	     -7.58849327
      3.11000000	     -9.74421205	     -5.69937704	      3.84333251	     -1.67192603	     -0.02960895	      0.69112975	     26.53673309	      3.74584628	      1.03820642	    -31.46348898	      5.94521357	     -0.38943170	     17.17132436	     20.55548829	     -4.54040052	      2.16044204	    -65.77319674	    -18.28745201	      1.98801211	     30.76123458	      7.45147353	     13.60898808	     -7.23974764
      3.11500000	     -9.69696656	     -5.71009962	      3.71222618	     -1.66513622	     -0.02830897	      0.69181057	     25.73373366	      3.92251003	      1.22773201	    -30.89347559	      6.11742596	     -0.60600200	     16.61562157	     21.49942245	     -4.55330165	      1.98724825	    -66.43286551	    -18.19582877	      2.26753798	     32.03291979	      7.34208123	     13.62979908	     -6.95760727
      3.12000000	     -9.66659733	     -5.69147655	      3.55335365	     -1.65835891	     -0.02707470	      0.69237200	     24.94255941	      4.04201036	      1.40846609	    -30.30066149	      6.29167136	     -0.63752085	     16.52950710	     22.45068183	     -4.53413671	      1.74515016	    -67.06544181	    -17.89458982	      2.40532745	     32.25946595	      7.24373265	     13.63821883	     -6.64150572
      3.12500000	     -9.63907732	     -5.69035893	      3.40306561	     -1.65154735	     -0.02582343	      0.69300081	     24.12773083	      4.20272915	      1.65737279	    -29.66134472	      6.37908239	     -0.88674319	     16.23580154	     23.38203069	     -4.53904825	      1.53466931	    -67.59434756	    -17.59001784	      2.49565349	     32.44538692	      7.15852612	     13.64804696	     -6.33351965
      3.13000000	     -9.61378303	     -5.69905637	      3.25684844	     -1.64474050	     -0.02464283	      0.69355393	     23.31034326	      4.34350572	      1.84630461	    -29.00802314	      6.52112609	     -0.98083384	     16.05798880	     24.30902221	     -4.55929227	      1.30629653	    -68.04993919	    -17.33428280	      2.39004617	     32.53131314	      7.07875901	     13.67349059	     -6.07115105
      3.13500000	     -9.56497160	     -5.67549106	      3.08635410	     -1.63797096	     -0.02347987	      0.69424374	     22.46944088	      4.49491233	      2.16590050	    -28.37951757	      6.68705456	     -1.22655370	     15.33899985	     25.18290028	     -4.56654385	      1.06348081	    -68.43226109	    -16.92423343	      2.34466609	     32.34888030	      6.95133762	     13.65148306	     -5.74235326
      3.14000000	     -9.54748289	     -5.64915253	      2.90472833	     -1.63109010	     -0.02233726	      0.69486307	     21.64027038	      4.61701148	      2.44048055	    -27.70895127	      6.80606550	     -1.39159640	     14.79360979	     26.05816456	     -4.57706565	      0.79374785	    -68.71019829	    -16.59463235	      2.12868038	     32.14619863	      6.88065747	     13.63346918	     -5.43877763
      3.14500000	     -9.53673840	     -5.63176426	      2.75684666	     -1.62431180	     -0.02130931	      0.69543751	     20.82869623	      4.72372702	      2.67415424	    -27.03460451	      6.90518062	     -1.57150608	     14.58705404	     26.95219904	     -4.58497493	      0.56590752	    -68.92601496	    -16.36412838	      1.79639226	     32.11525305	      6.80674676	     13.61839566	     -5.19225176
      3.15000000	     -9.51351307	     -5.57385654	      2.55624476	     -1.61750124	     -0.02028398	      0.69614049	     19.99882382	      4.82179979	      3.01963608	    -26.36039737	      6.96102749	     -1.85546942	     14.26691225	     27.78518227	     -4.58722659	      0.28638376	    -69.04415717	    -16.06990745	      1.48096921	     31.98518240	      6.70420225	     13.55095606	     -4.87485129
      3.15500000	     -9.46754583	     -5.48953440	      2.33789984	     -1.61070918	     -0.01928909	      0.69685223	     19.15831295	      4.88935498	      3.35821378	    -25.71322209	      7.01503557	     -2.11901686	     13.84452632	     28.56538062	     -4.57608470	     -0.01007941	    -69.08868428	    -15.70528255	      1.18154173	     31.70513137	      6.56175676	     13.46073799	     -4.48220155
      3.16000000	     -9.39927939	     -5.37801716	      2.14193644	     -1.60386888	     -0.01835789	      0.69752423	     18.29140335	      4.91062988	      3.69892217	    -25.09114436	      7.23472617	     -2.19356841	     13.13282465	     29.30058152	     -4.53071692	     -0.28406718	    -69.08760333	    -15.14204177	      1.04744251	     30.93871171	      6.40772139	     13.33207031	     -4.18260601
      3.16500000	     -9.40823605	     -5.29145407	      1.94306171	     -1.59709986	     -0.01757473	      0.69819349	     17.52463586	      4.94280802	      3.99603082	    -24.45782300	      7.28946395	     -2.40349438	     12.91862897	     30.11605815	     -4.51614673	     -0.54678550	    -68.98427818	    -14.89205969	      0.64500690	     30.76475872	      6.32968886	     13.22697376	     -3.86627631
      3.17000000	     -9.36485038	     -5.14604722	      1.69575615	     -1.59030781	     -0.01677509	      0.69897920	     16.70237136	      4.93751668	      4.40144733	    -23.83772262	      7.35581676	     -2.65237347	     12.60334081	     30.82275622	     -4.48383180	     -0.85806244	    -68.79202437	    -14.51690367	      0.41830122	     30.39555365	      6.17835809	     13.05614303	     -3.49268079
      3.17500000	     -9.29070842	     -5.03518226	      1.51020661	     -1.58349909	     -0.01608728	      0.69961751	     15.85555236	      4.92995805	      4.70520850	    -23.25317345	      7.58171223	     -2.70259884	     11.88959945	     31.50469940	     -4.45453209	     -1.10478137	    -68.60827953	    -13.84215716	      0.34515008	     29.18304953	      6.01147968	     12.91702346	     -3.20527663
      3.18000000	     -9.30141226	     -4.87138407	      1.26592200	     -1.57675759	     -0.01550378	      0.70037656	     15.12279424	      4.88028221	      5.07683754	    -22.67779086	      7.63324759	     -2.93792663	     11.67421817	     32.23374816	     -4.41180666	     -1.40152514	    -68.26256512	    -13.56388156	      0.07954624	     28.91928399	      5.91280698	     12.71997072	     -2.83938962
